<svg width="599" height="223" viewBox="0 0 599 223" fill="none" xmlns="http://www.w3.org/2000/svg">
<path d="M81.9 101.85L92.55 101.7V107.85C91.35 107.65 89.95 107.55 88.35 107.55C86.75 107.55 84.95 107.65 82.95 107.85C82.95 115.55 79.25 123.35 71.85 131.25C64.45 139.15 55.5 145.55 45 150.45C34.6 155.45 24.9 157.95 15.9 157.95C11.2 157.95 7.35 156.75 4.35 154.35C1.45 151.95 -2.12342e-07 148.8 -2.12342e-07 144.9C-2.12342e-07 139.1 3.85 133.05 11.55 126.75C19.25 120.45 28.25 115.25 38.55 111.15C48.85 107.05 58.15 104.65 66.45 103.95C65.45 102.45 63.9 101.15 61.8 100.05C59.7 98.95 55.4 97.25 48.9 94.95C42.4 92.55 37.8 89.95 35.1 87.15C32.4 84.25 31.05 80.2 31.05 75C31.05 69.8 33.85 63.85 39.45 57.15C45.05 50.45 51.65 44.85 59.25 40.35C66.95 35.75 73.7 33.45 79.5 33.45C82.1 33.45 84.25 34.4 85.95 36.3C87.65 38.1 88.5 40.35 88.5 43.05C88.5 47.45 85.85 53 80.55 59.7C75.25 66.3 69.35 71.35 62.85 74.85L59.25 69.75C63.15 67.75 66.55 64.65 69.45 60.45C72.45 56.15 73.95 52.45 73.95 49.35C73.95 46.25 72.3 44.7 69 44.7C64.3 44.7 58.9 47.65 52.8 53.55C46.8 59.35 43.8 64.8 43.8 69.9C43.8 73.4 44.7 76.15 46.5 78.15C48.3 80.15 52.85 82.65 60.15 85.65C67.45 88.55 72.65 91.15 75.75 93.45C78.85 95.65 80.9 98.45 81.9 101.85ZM15 141C15 145.8 18.9 148.2 26.7 148.2C31 148.2 36.55 146.6 43.35 143.4C50.25 140.3 56.3 135.9 61.5 130.2C66.8 124.6 69.45 118.85 69.45 112.95C69.45 112.25 69.3 111.2 69 109.8C55.3 111.1 42.85 114.95 31.65 121.35C20.55 127.75 15 134.3 15 141ZM156.443 118.05L159.893 120.9C155.693 127.9 150.243 131.4 143.543 131.4C137.743 131.4 134.843 128.55 134.843 122.85C134.843 119.55 136.243 114.3 139.043 107.1C141.943 99.8 143.393 95 143.393 92.7C143.393 89.8 141.543 88.35 137.843 88.35C134.143 88.35 129.093 92.35 122.693 100.35C116.393 108.25 111.093 117.45 106.793 127.95L97.943 124.8C103.143 98.7 116.743 63.75 138.743 19.95L146.093 22.35C134.993 44.55 127.043 62.2 122.243 75.3C117.243 88.9 113.493 100.15 110.993 109.05C118.693 96.35 125.293 87.55 130.793 82.65C136.393 77.75 141.243 75.3 145.343 75.3C152.743 75.3 156.443 77.95 156.443 83.25C156.443 86.55 154.593 92.45 150.893 100.95C147.193 109.45 145.343 115.1 145.343 117.9C145.343 120.7 146.693 122.1 149.393 122.1C150.793 122.1 153.143 120.75 156.443 118.05ZM194.036 65.4C188.436 65.4 185.636 63.15 185.636 58.65C185.636 56.15 186.336 54.05 187.736 52.35C189.136 50.65 190.936 49.8 193.136 49.8C195.336 49.8 197.136 50.45 198.536 51.75C199.936 53.05 200.636 54.75 200.636 56.85C200.636 58.95 200.036 60.9 198.836 62.7C197.636 64.5 196.036 65.4 194.036 65.4ZM192.086 109.65L195.086 112.2C192.686 116.8 189.486 120.75 185.486 124.05C181.586 127.25 178.036 128.85 174.836 128.85C169.236 128.85 166.436 124.95 166.436 117.15C166.436 107.45 170.436 94.8 178.436 79.2C180.236 75.8 181.286 73.8 181.586 73.2L188.036 77.1C185.936 80.9 183.336 86.95 180.236 95.25C177.236 103.55 175.736 108.9 175.736 111.3C175.736 113.6 176.236 115.25 177.236 116.25C178.236 117.25 179.436 117.75 180.836 117.75C183.536 117.75 187.286 115.05 192.086 109.65ZM245.572 75.9C248.072 75.9 250.122 76.75 251.722 78.45C253.322 80.15 254.122 82.35 254.122 85.05C254.122 90.45 251.022 96.15 244.822 102.15L241.222 99.3C242.622 96.2 243.322 93.95 243.322 92.55C243.322 89.85 241.822 88.5 238.822 88.5C235.822 88.5 232.972 90.4 230.272 94.2C227.572 98 224.372 103.9 220.672 111.9C217.072 119.8 214.322 125.4 212.422 128.7L203.872 124.95C209.372 112.45 212.522 105.1 213.322 102.9C216.022 95.1 217.372 85.2 217.372 73.2L225.772 70.95C225.472 77.45 225.022 82.5 224.422 86.1C223.822 89.6 222.372 95.35 220.072 103.35C230.172 85.05 238.672 75.9 245.572 75.9ZM298.893 111.3L302.343 114C299.243 118.3 294.993 121.9 289.593 124.8C284.193 127.6 278.943 129 273.843 129C268.743 129 264.643 127.5 261.543 124.5C258.443 121.5 256.893 117.55 256.893 112.65C256.893 103.45 261.743 94.4 271.443 85.5C281.243 76.6 291.143 72.15 301.143 72.15C307.743 72.15 311.043 74.75 311.043 79.95C311.043 85.35 307.543 90.8 300.543 96.3C293.643 101.8 283.893 106.8 271.293 111.3C272.193 113.6 273.593 115.4 275.493 116.7C277.393 118 279.343 118.65 281.343 118.65C285.643 118.65 291.493 116.2 298.893 111.3ZM270.543 106.8C278.643 104 285.593 100.5 291.393 96.3C297.193 92.1 300.093 88.25 300.093 84.75C300.093 83.45 299.593 82.3 298.593 81.3C297.593 80.3 296.443 79.8 295.143 79.8C290.443 79.8 285.343 82.75 279.843 88.65C274.443 94.45 271.343 100.5 270.543 106.8ZM359.409 70.35L358.059 76.2C356.359 76 354.159 75.9 351.459 75.9C341.459 75.9 336.459 79.2 336.459 85.8C336.459 87.2 338.459 91.3 342.459 98.1C346.559 104.9 348.609 109.45 348.609 111.75C348.609 117.15 346.759 121.4 343.059 124.5C339.459 127.5 334.609 129 328.509 129C320.109 129 313.359 124.35 308.259 115.05L313.959 111C315.359 112.1 316.859 113.45 318.459 115.05C320.059 116.55 321.259 117.6 322.059 118.2C323.959 119.9 326.059 120.75 328.359 120.75C330.659 120.75 332.659 119.95 334.359 118.35C336.059 116.65 336.909 114.6 336.909 112.2C336.909 109.7 334.709 105.1 330.309 98.4C326.009 91.7 323.859 87 323.859 84.3C323.859 79.4 325.909 75.65 330.009 73.05C334.209 70.45 339.659 69.15 346.359 69.15C353.159 69.15 357.509 69.55 359.409 70.35Z" fill="white"/>
<path d="M425.868 45.75L404.418 45.3C382.518 45.3 371.568 50.1 371.568 59.7C371.568 62.2 372.468 64.25 374.268 65.85C376.168 67.35 378.968 68.1 382.668 68.1C386.368 68.1 391.218 66.4 397.218 63L399.468 66.9C396.368 70.2 392.868 72.8 388.968 74.7C385.068 76.6 381.168 77.55 377.268 77.55C373.368 77.55 370.018 76.25 367.218 73.65C364.418 71.05 363.018 67.8 363.018 63.9C363.018 56 367.268 49.1 375.768 43.2C384.368 37.3 395.968 34.35 410.568 34.35C411.768 34.35 416.068 34.55 423.468 34.95C430.868 35.35 436.718 35.55 441.018 35.55C445.318 35.55 449.268 34.9 452.868 33.6C454.268 33.2 455.118 33 455.418 33C456.818 33 457.518 33.9 457.518 35.7C457.518 38.3 455.218 40.65 450.618 42.75C446.118 44.85 440.918 45.9 435.018 45.9C428.418 52.3 422.618 63.5 417.618 79.5C412.718 95.4 406.818 107.55 399.918 115.95C393.118 124.25 385.018 128.4 375.618 128.4C371.918 128.4 368.418 127.2 365.118 124.8L368.568 119.1C369.768 119.7 371.118 120.25 372.618 120.75L374.718 121.05C375.218 121.15 375.968 121.2 376.968 121.2C381.968 121.2 386.418 118.8 390.318 114C394.318 109.2 398.468 100.15 402.768 86.85C407.168 73.45 410.568 64.6 412.968 60.3C415.468 55.9 419.768 51.05 425.868 45.75ZM464.713 111.3L468.163 114C465.063 118.3 460.813 121.9 455.413 124.8C450.013 127.6 444.763 129 439.663 129C434.563 129 430.463 127.5 427.363 124.5C424.263 121.5 422.713 117.55 422.713 112.65C422.713 103.45 427.563 94.4 437.263 85.5C447.063 76.6 456.963 72.15 466.963 72.15C473.563 72.15 476.863 74.75 476.863 79.95C476.863 85.35 473.363 90.8 466.363 96.3C459.463 101.8 449.713 106.8 437.113 111.3C438.013 113.6 439.413 115.4 441.313 116.7C443.213 118 445.163 118.65 447.163 118.65C451.463 118.65 457.313 116.2 464.713 111.3ZM436.363 106.8C444.463 104 451.413 100.5 457.213 96.3C463.013 92.1 465.913 88.25 465.913 84.75C465.913 83.45 465.413 82.3 464.413 81.3C463.413 80.3 462.263 79.8 460.963 79.8C456.263 79.8 451.163 82.75 445.663 88.65C440.263 94.45 437.163 100.5 436.363 106.8ZM520.492 107.7L524.092 110.7C521.692 116.2 517.842 120.6 512.542 123.9C507.242 127.2 502.092 128.85 497.092 128.85C492.192 128.85 488.092 127.3 484.792 124.2C481.592 121.1 479.992 116.85 479.992 111.45C479.992 106.05 482.342 100.2 487.042 93.9C491.742 87.6 497.792 82.4 505.192 78.3C512.692 74.2 520.042 72.15 527.242 72.15C528.242 72.15 529.742 72.25 531.742 72.45L531.292 78.3C520.292 78.8 511.142 82.15 503.842 88.35C496.642 94.55 493.042 101.15 493.042 108.15C493.042 111.05 493.942 113.4 495.742 115.2C497.542 117 499.892 117.9 502.792 117.9C507.392 117.9 513.292 114.5 520.492 107.7ZM592.527 118.05L595.977 120.9C591.777 127.9 586.327 131.4 579.627 131.4C573.827 131.4 570.927 128.55 570.927 122.85C570.927 119.55 572.327 114.3 575.127 107.1C578.027 99.8 579.477 95 579.477 92.7C579.477 89.8 577.627 88.35 573.927 88.35C570.227 88.35 565.177 92.35 558.777 100.35C552.477 108.25 547.177 117.45 542.877 127.95L534.027 124.8C539.227 98.7 552.827 63.75 574.827 19.95L582.177 22.35C571.077 44.55 563.127 62.2 558.327 75.3C553.327 88.9 549.577 100.15 547.077 109.05C554.777 96.35 561.377 87.55 566.877 82.65C572.477 77.75 577.327 75.3 581.427 75.3C588.827 75.3 592.527 77.95 592.527 83.25C592.527 86.55 590.677 92.45 586.977 100.95C583.277 109.45 581.427 115.1 581.427 117.9C581.427 120.7 582.777 122.1 585.477 122.1C586.877 122.1 589.227 120.75 592.527 118.05Z" fill="#FFAC33"/>
<path d="M233.06 163.24L245.18 163.6L257.3 163.24C257.94 163.24 258.5 163.46 258.98 163.9C259.5 164.3 259.76 164.86 259.76 165.58C259.76 166.3 259.5 166.88 258.98 167.32C258.5 167.72 257.94 167.92 257.3 167.92L245.18 167.56C244.14 167.56 242.46 167.6 240.14 167.68C240.14 167.76 240.06 169.1 239.9 171.7C239.78 174.3 239.7 176.9 239.66 179.5C241.18 179.66 242.92 180.24 244.88 181.24C246.84 182.2 248.26 182.68 249.14 182.68C250.06 182.68 250.88 182.52 251.6 182.2C252.32 181.84 252.8 181.44 253.04 181C253.6 179.92 254.28 179.38 255.08 179.38C256.04 179.38 256.52 179.98 256.52 181.18C256.52 182.34 255.78 183.7 254.3 185.26C252.82 186.78 251.08 187.54 249.08 187.54C247.12 187.54 245.22 186.92 243.38 185.68C241.58 184.44 240.34 183.76 239.66 183.64C239.66 187.84 239.74 191.88 239.9 195.76C240.1 199.64 240.2 201.9 240.2 202.54C240.2 203.14 239.92 203.76 239.36 204.4C238.84 205.04 238.16 205.36 237.32 205.36C236.48 205.36 235.78 205.04 235.22 204.4C234.7 203.76 234.44 203.1 234.44 202.42C234.44 201.7 234.52 199.58 234.68 196.06C234.84 192.54 234.94 188.98 234.98 185.38C234.9 185.46 234.78 185.6 234.62 185.8C234.46 185.96 234.34 186.08 234.26 186.16C234.18 186.24 234.06 186.34 233.9 186.46C233.74 186.58 233.6 186.68 233.48 186.76C233.28 186.88 233.04 186.94 232.76 186.94C231.88 186.94 231.44 186.4 231.44 185.32C231.44 184.68 231.78 183.92 232.46 183.04C233.14 182.16 233.98 181.4 234.98 180.76C234.98 178.52 234.8 174.24 234.44 167.92H233.06C232.42 167.92 231.84 167.72 231.32 167.32C230.84 166.88 230.6 166.3 230.6 165.58C230.6 164.86 230.84 164.3 231.32 163.9C231.84 163.46 232.42 163.24 233.06 163.24ZM265.745 185.02C263.985 186.78 263.105 188.94 263.105 191.5C263.105 194.06 263.985 196.24 265.745 198.04C267.545 199.8 269.705 200.68 272.225 200.68C274.785 200.68 276.925 199.8 278.645 198.04C280.365 196.24 281.225 194.06 281.225 191.5C281.225 188.94 280.365 186.78 278.645 185.02C276.925 183.26 274.785 182.38 272.225 182.38C269.705 182.38 267.545 183.26 265.745 185.02ZM268.145 205.36C265.585 205.36 263.445 204.36 261.725 202.36C260.005 200.36 259.145 197.86 259.145 194.86C259.145 191.82 260.085 188.9 261.965 186.1C263.845 183.26 266.045 181.14 268.565 179.74C271.085 178.34 273.625 177.64 276.185 177.64C278.745 177.64 280.885 178.64 282.605 180.64C284.325 182.64 285.185 185.16 285.185 188.2C285.185 191.2 284.245 194.12 282.365 196.96C280.485 199.76 278.285 201.86 275.765 203.26C273.245 204.66 270.705 205.36 268.145 205.36ZM295.887 190.9L296.367 201.76C296.367 202.84 296.087 203.72 295.527 204.4C295.007 205.04 294.367 205.36 293.607 205.36C292.847 205.36 292.227 205.06 291.747 204.46C291.267 203.82 291.027 202.96 291.027 201.88C291.027 200.8 291.127 199.26 291.327 197.26C291.727 193.26 291.927 189.88 291.927 187.12C291.927 185.92 291.547 184.78 290.787 183.7C290.067 182.58 289.707 181.58 289.707 180.7C289.707 179.82 290.007 179.1 290.607 178.54C291.207 177.94 291.887 177.64 292.647 177.64C294.647 177.64 295.647 179.22 295.647 182.38V184.72C296.847 182.56 298.287 180.84 299.967 179.56C301.647 178.28 303.187 177.64 304.587 177.64C305.987 177.64 307.047 178 307.767 178.72C308.527 179.4 308.907 180.32 308.907 181.48C308.907 182.64 308.627 183.62 308.067 184.42C307.507 185.18 306.907 185.56 306.267 185.56C305.627 185.56 305.127 185.4 304.767 185.08C304.447 184.72 304.207 184.36 304.047 184C303.887 183.6 303.587 183.24 303.147 182.92C302.707 182.56 302.147 182.38 301.467 182.38C300.307 182.38 299.147 183.14 297.987 184.66C296.827 186.18 296.127 188.26 295.887 190.9ZM343.854 167.38C343.854 167.38 342.794 167.36 340.674 167.32C335.074 167.32 332.274 168.96 332.274 172.24C332.274 174.48 333.414 175.82 335.694 176.26C337.214 176.54 337.974 177.34 337.974 178.66C337.974 179.38 337.714 179.96 337.194 180.4C336.714 180.8 336.054 181 335.214 181C333.454 181 331.974 180.26 330.774 178.78C329.574 177.26 328.974 175.54 328.974 173.62C328.974 166.7 334.894 163.24 346.734 163.24H358.854C359.494 163.24 360.054 163.46 360.534 163.9C361.054 164.3 361.314 164.86 361.314 165.58C361.314 166.3 361.054 166.88 360.534 167.32C360.054 167.72 359.494 167.92 358.854 167.92L349.554 167.62C349.234 174.5 349.074 179.98 349.074 184.06C349.074 188.1 349.154 192.02 349.314 195.82C349.514 199.62 349.614 201.84 349.614 202.48C349.614 203.12 349.334 203.76 348.774 204.4C348.254 205.04 347.574 205.36 346.734 205.36C345.894 205.36 345.194 205.04 344.634 204.4C344.114 203.76 343.854 203.12 343.854 202.48C343.854 201.84 343.934 199.62 344.094 195.82C344.294 192.02 344.394 188.26 344.394 184.54C344.394 180.82 344.214 175.1 343.854 167.38ZM389.174 196.42C389.414 197.58 389.934 198.62 390.734 199.54C391.574 200.42 391.994 201.32 391.994 202.24C391.994 203.16 391.674 203.92 391.034 204.52C390.394 205.08 389.694 205.36 388.934 205.36C388.174 205.36 387.554 205.22 387.074 204.94C386.594 204.66 386.194 204.24 385.874 203.68C385.434 202.84 385.094 201.82 384.854 200.62L382.214 188.08C381.814 186.24 381.174 184.78 380.294 183.7C379.454 182.62 378.134 182.08 376.334 182.08C374.574 182.08 373.194 182.7 372.194 183.94C371.234 185.14 370.734 186.46 370.694 187.9C371.014 197.38 371.174 202.4 371.174 202.96C371.174 203.48 370.934 204.02 370.454 204.58C369.974 205.1 369.354 205.36 368.594 205.36C367.834 205.36 367.174 205.1 366.614 204.58C366.094 204.02 365.834 203.12 365.834 201.88C365.834 200.64 365.934 197.7 366.134 193.06C366.334 188.38 366.434 184.76 366.434 182.2C366.434 179.64 366.334 176.2 366.134 171.88C365.934 167.56 365.834 164.78 365.834 163.54C365.834 162.3 366.094 161.4 366.614 160.84C367.174 160.28 367.834 160 368.594 160C369.354 160 369.974 160.28 370.454 160.84C370.934 161.36 371.174 162.24 371.174 163.48C371.174 164.68 371.074 167.52 370.874 172C370.714 176.44 370.634 180.08 370.634 182.92C372.994 179.4 375.714 177.64 378.794 177.64C382.994 177.64 385.694 180.46 386.894 186.1L389.174 196.42ZM408.389 193.06L401.249 192.46C400.569 192.46 400.029 192.52 399.629 192.64C399.869 194.92 400.829 196.82 402.509 198.34C404.229 199.86 406.249 200.62 408.569 200.62C410.809 200.62 412.829 199.8 414.629 198.16C415.269 197.6 415.749 197.32 416.069 197.32C416.389 197.32 416.669 197.44 416.909 197.68C417.149 197.92 417.269 198.18 417.269 198.46C417.269 199.62 416.129 201.06 413.849 202.78C411.609 204.5 409.049 205.36 406.169 205.36C403.329 205.36 400.849 204.2 398.729 201.88C396.649 199.56 395.609 196.68 395.609 193.24C395.609 188.84 397.269 185.14 400.589 182.14C403.909 179.14 407.569 177.64 411.569 177.64C413.249 177.64 414.609 177.94 415.649 178.54C416.729 179.1 417.269 179.84 417.269 180.76C417.269 181.64 416.989 182.36 416.429 182.92C415.909 183.48 415.389 183.76 414.869 183.76C414.349 183.76 413.449 183.52 412.169 183.04C410.929 182.56 409.729 182.32 408.569 182.32C406.409 182.32 404.529 182.98 402.929 184.3C401.369 185.58 400.329 187.18 399.809 189.1L408.089 188.62C409.929 188.62 410.849 189.34 410.849 190.78C410.849 192.3 410.029 193.06 408.389 193.06ZM442.533 163.24L454.653 163.6L466.773 163.24C467.413 163.24 467.973 163.46 468.453 163.9C468.973 164.3 469.233 164.86 469.233 165.58C469.233 166.3 468.973 166.88 468.453 167.32C467.973 167.72 467.413 167.92 466.773 167.92L454.653 167.56C453.613 167.56 451.933 167.6 449.613 167.68C449.613 167.76 449.533 169.1 449.373 171.7C449.253 174.3 449.173 176.9 449.133 179.5C450.653 179.66 452.393 180.24 454.353 181.24C456.313 182.2 457.733 182.68 458.613 182.68C459.533 182.68 460.353 182.52 461.073 182.2C461.793 181.84 462.273 181.44 462.513 181C463.073 179.92 463.753 179.38 464.553 179.38C465.513 179.38 465.993 179.98 465.993 181.18C465.993 182.34 465.253 183.7 463.773 185.26C462.293 186.78 460.553 187.54 458.553 187.54C456.593 187.54 454.693 186.92 452.853 185.68C451.053 184.44 449.813 183.76 449.133 183.64C449.133 187.84 449.213 191.88 449.373 195.76C449.573 199.64 449.673 201.9 449.673 202.54C449.673 203.14 449.393 203.76 448.833 204.4C448.313 205.04 447.633 205.36 446.793 205.36C445.953 205.36 445.253 205.04 444.693 204.4C444.173 203.76 443.913 203.1 443.913 202.42C443.913 201.7 443.993 199.58 444.153 196.06C444.313 192.54 444.413 188.98 444.453 185.38C444.373 185.46 444.253 185.6 444.093 185.8C443.933 185.96 443.813 186.08 443.733 186.16C443.653 186.24 443.533 186.34 443.373 186.46C443.213 186.58 443.073 186.68 442.953 186.76C442.753 186.88 442.513 186.94 442.233 186.94C441.353 186.94 440.913 186.4 440.913 185.32C440.913 184.68 441.253 183.92 441.933 183.04C442.613 182.16 443.453 181.4 444.453 180.76C444.453 178.52 444.273 174.24 443.913 167.92H442.533C441.893 167.92 441.313 167.72 440.793 167.32C440.313 166.88 440.073 166.3 440.073 165.58C440.073 164.86 440.313 164.3 440.793 163.9C441.313 163.46 441.893 163.24 442.533 163.24ZM491.514 194.74L490.914 181.24C490.914 180.16 491.174 179.3 491.694 178.66C492.254 177.98 492.914 177.64 493.674 177.64C494.434 177.64 495.054 177.96 495.534 178.6C496.014 179.2 496.254 180.04 496.254 181.12C496.254 182.16 496.134 183.64 495.894 185.56C495.414 189.4 495.174 192.84 495.174 195.88C495.174 197.08 495.554 198.24 496.314 199.36C497.114 200.44 497.514 201.42 497.514 202.3C497.514 203.18 497.214 203.92 496.614 204.52C496.014 205.08 495.334 205.36 494.574 205.36C492.574 205.36 491.574 203.78 491.574 200.62C489.694 203.78 487.334 205.36 484.494 205.36C482.214 205.36 480.394 204.54 479.034 202.9C477.714 201.26 476.794 199.26 476.274 196.9L473.994 186.58C473.754 185.42 473.214 184.4 472.374 183.52C471.574 182.6 471.174 181.68 471.174 180.76C471.174 179.84 471.494 179.1 472.134 178.54C472.774 177.94 473.534 177.64 474.414 177.64C476.414 177.64 477.714 179.22 478.314 182.38L480.594 194.92C481.354 198.92 483.254 200.92 486.294 200.92C487.774 200.92 488.994 200.34 489.954 199.18C490.914 197.98 491.434 196.5 491.514 194.74ZM517.196 182.08C516.996 182.08 514.496 181.92 509.696 181.6C509.696 182.12 509.616 184.1 509.456 187.54C509.296 190.98 509.216 193.54 509.216 195.22C509.216 196.86 509.576 198.24 510.296 199.36C511.056 200.44 511.436 201.42 511.436 202.3C511.436 203.18 511.136 203.92 510.536 204.52C509.936 205.08 509.256 205.36 508.496 205.36C506.496 205.36 505.496 203.78 505.496 200.62L505.256 188.44C505.256 185.96 505.196 183.74 505.076 181.78H503.636C503.076 181.78 502.616 181.62 502.256 181.3C501.896 180.94 501.716 180.46 501.716 179.86C501.716 179.26 501.896 178.8 502.256 178.48C502.616 178.12 503.076 177.94 503.636 177.94H504.896C504.816 175.86 504.776 174.28 504.776 173.2C504.776 172.08 505.036 171.2 505.556 170.56C506.116 169.88 506.776 169.54 507.536 169.54C508.296 169.54 508.916 169.86 509.396 170.5C509.876 171.1 510.116 172.1 510.116 173.5C510.116 174.9 510.056 176.44 509.936 178.12L517.196 177.64C518.756 177.64 519.536 178.38 519.536 179.86C519.536 181.34 518.756 182.08 517.196 182.08ZM541.67 194.74L541.07 181.24C541.07 180.16 541.33 179.3 541.85 178.66C542.41 177.98 543.07 177.64 543.83 177.64C544.59 177.64 545.21 177.96 545.69 178.6C546.17 179.2 546.41 180.04 546.41 181.12C546.41 182.16 546.29 183.64 546.05 185.56C545.57 189.4 545.33 192.84 545.33 195.88C545.33 197.08 545.71 198.24 546.47 199.36C547.27 200.44 547.67 201.42 547.67 202.3C547.67 203.18 547.37 203.92 546.77 204.52C546.17 205.08 545.49 205.36 544.73 205.36C542.73 205.36 541.73 203.78 541.73 200.62C539.85 203.78 537.49 205.36 534.65 205.36C532.37 205.36 530.55 204.54 529.19 202.9C527.87 201.26 526.95 199.26 526.43 196.9L524.15 186.58C523.91 185.42 523.37 184.4 522.53 183.52C521.73 182.6 521.33 181.68 521.33 180.76C521.33 179.84 521.65 179.1 522.29 178.54C522.93 177.94 523.69 177.64 524.57 177.64C526.57 177.64 527.87 179.22 528.47 182.38L530.75 194.92C531.51 198.92 533.41 200.92 536.45 200.92C537.93 200.92 539.15 200.34 540.11 199.18C541.07 197.98 541.59 196.5 541.67 194.74ZM559.852 190.9L560.332 201.76C560.332 202.84 560.052 203.72 559.492 204.4C558.972 205.04 558.332 205.36 557.572 205.36C556.812 205.36 556.192 205.06 555.712 204.46C555.232 203.82 554.992 202.96 554.992 201.88C554.992 200.8 555.092 199.26 555.292 197.26C555.692 193.26 555.892 189.88 555.892 187.12C555.892 185.92 555.512 184.78 554.752 183.7C554.032 182.58 553.672 181.58 553.672 180.7C553.672 179.82 553.972 179.1 554.572 178.54C555.172 177.94 555.852 177.64 556.612 177.64C558.612 177.64 559.612 179.22 559.612 182.38V184.72C560.812 182.56 562.252 180.84 563.932 179.56C565.612 178.28 567.152 177.64 568.552 177.64C569.952 177.64 571.012 178 571.732 178.72C572.492 179.4 572.872 180.32 572.872 181.48C572.872 182.64 572.592 183.62 572.032 184.42C571.472 185.18 570.872 185.56 570.232 185.56C569.592 185.56 569.092 185.4 568.732 185.08C568.412 184.72 568.172 184.36 568.012 184C567.852 183.6 567.552 183.24 567.112 182.92C566.672 182.56 566.112 182.38 565.432 182.38C564.272 182.38 563.112 183.14 561.952 184.66C560.792 186.18 560.092 188.26 559.852 190.9ZM588.331 193.06L581.191 192.46C580.511 192.46 579.971 192.52 579.571 192.64C579.811 194.92 580.771 196.82 582.451 198.34C584.171 199.86 586.191 200.62 588.511 200.62C590.751 200.62 592.771 199.8 594.571 198.16C595.211 197.6 595.691 197.32 596.011 197.32C596.331 197.32 596.611 197.44 596.851 197.68C597.091 197.92 597.211 198.18 597.211 198.46C597.211 199.62 596.071 201.06 593.791 202.78C591.551 204.5 588.991 205.36 586.111 205.36C583.271 205.36 580.791 204.2 578.671 201.88C576.591 199.56 575.551 196.68 575.551 193.24C575.551 188.84 577.211 185.14 580.531 182.14C583.851 179.14 587.511 177.64 591.511 177.64C593.191 177.64 594.551 177.94 595.591 178.54C596.671 179.1 597.211 179.84 597.211 180.76C597.211 181.64 596.931 182.36 596.371 182.92C595.851 183.48 595.331 183.76 594.811 183.76C594.291 183.76 593.391 183.52 592.111 183.04C590.871 182.56 589.671 182.32 588.511 182.32C586.351 182.32 584.471 182.98 582.871 184.3C581.311 185.58 580.271 187.18 579.751 189.1L588.031 188.62C589.871 188.62 590.791 189.34 590.791 190.78C590.791 192.3 589.971 193.06 588.331 193.06Z" fill="white"/>
</svg>
