<svg width="599" height="223" viewBox="0 0 599 223" fill="none" xmlns="http://www.w3.org/2000/svg">
<path d="M81.9 101.85L92.55 101.7V107.85C91.35 107.65 89.95 107.55 88.35 107.55C86.75 107.55 84.95 107.65 82.95 107.85C82.95 115.55 79.25 123.35 71.85 131.25C64.45 139.15 55.5 145.55 45 150.45C34.6 155.45 24.9 157.95 15.9 157.95C11.2 157.95 7.35 156.75 4.35 154.35C1.45 151.95 -2.12342e-07 148.8 -2.12342e-07 144.9C-2.12342e-07 139.1 3.85 133.05 11.55 126.75C19.25 120.45 28.25 115.25 38.55 111.15C48.85 107.05 58.15 104.65 66.45 103.95C65.45 102.45 63.9 101.15 61.8 100.05C59.7 98.95 55.4 97.25 48.9 94.95C42.4 92.55 37.8 89.95 35.1 87.15C32.4 84.25 31.05 80.2 31.05 75C31.05 69.8 33.85 63.85 39.45 57.15C45.05 50.45 51.65 44.85 59.25 40.35C66.95 35.75 73.7 33.45 79.5 33.45C82.1 33.45 84.25 34.4 85.95 36.3C87.65 38.1 88.5 40.35 88.5 43.05C88.5 47.45 85.85 53 80.55 59.7C75.25 66.3 69.35 71.35 62.85 74.85L59.25 69.75C63.15 67.75 66.55 64.65 69.45 60.45C72.45 56.15 73.95 52.45 73.95 49.35C73.95 46.25 72.3 44.7 69 44.7C64.3 44.7 58.9 47.65 52.8 53.55C46.8 59.35 43.8 64.8 43.8 69.9C43.8 73.4 44.7 76.15 46.5 78.15C48.3 80.15 52.85 82.65 60.15 85.65C67.45 88.55 72.65 91.15 75.75 93.45C78.85 95.65 80.9 98.45 81.9 101.85ZM15 141C15 145.8 18.9 148.2 26.7 148.2C31 148.2 36.55 146.6 43.35 143.4C50.25 140.3 56.3 135.9 61.5 130.2C66.8 124.6 69.45 118.85 69.45 112.95C69.45 112.25 69.3 111.2 69 109.8C55.3 111.1 42.85 114.95 31.65 121.35C20.55 127.75 15 134.3 15 141ZM156.443 118.05L159.893 120.9C155.693 127.9 150.243 131.4 143.543 131.4C137.743 131.4 134.843 128.55 134.843 122.85C134.843 119.55 136.243 114.3 139.043 107.1C141.943 99.8 143.393 95 143.393 92.7C143.393 89.8 141.543 88.35 137.843 88.35C134.143 88.35 129.093 92.35 122.693 100.35C116.393 108.25 111.093 117.45 106.793 127.95L97.943 124.8C103.143 98.7 116.743 63.75 138.743 19.95L146.093 22.35C134.993 44.55 127.043 62.2 122.243 75.3C117.243 88.9 113.493 100.15 110.993 109.05C118.693 96.35 125.293 87.55 130.793 82.65C136.393 77.75 141.243 75.3 145.343 75.3C152.743 75.3 156.443 77.95 156.443 83.25C156.443 86.55 154.593 92.45 150.893 100.95C147.193 109.45 145.343 115.1 145.343 117.9C145.343 120.7 146.693 122.1 149.393 122.1C150.793 122.1 153.143 120.75 156.443 118.05ZM194.036 65.4C188.436 65.4 185.636 63.15 185.636 58.65C185.636 56.15 186.336 54.05 187.736 52.35C189.136 50.65 190.936 49.8 193.136 49.8C195.336 49.8 197.136 50.45 198.536 51.75C199.936 53.05 200.636 54.75 200.636 56.85C200.636 58.95 200.036 60.9 198.836 62.7C197.636 64.5 196.036 65.4 194.036 65.4ZM192.086 109.65L195.086 112.2C192.686 116.8 189.486 120.75 185.486 124.05C181.586 127.25 178.036 128.85 174.836 128.85C169.236 128.85 166.436 124.95 166.436 117.15C166.436 107.45 170.436 94.8 178.436 79.2C180.236 75.8 181.286 73.8 181.586 73.2L188.036 77.1C185.936 80.9 183.336 86.95 180.236 95.25C177.236 103.55 175.736 108.9 175.736 111.3C175.736 113.6 176.236 115.25 177.236 116.25C178.236 117.25 179.436 117.75 180.836 117.75C183.536 117.75 187.286 115.05 192.086 109.65ZM245.572 75.9C248.072 75.9 250.122 76.75 251.722 78.45C253.322 80.15 254.122 82.35 254.122 85.05C254.122 90.45 251.022 96.15 244.822 102.15L241.222 99.3C242.622 96.2 243.322 93.95 243.322 92.55C243.322 89.85 241.822 88.5 238.822 88.5C235.822 88.5 232.972 90.4 230.272 94.2C227.572 98 224.372 103.9 220.672 111.9C217.072 119.8 214.322 125.4 212.422 128.7L203.872 124.95C209.372 112.45 212.522 105.1 213.322 102.9C216.022 95.1 217.372 85.2 217.372 73.2L225.772 70.95C225.472 77.45 225.022 82.5 224.422 86.1C223.822 89.6 222.372 95.35 220.072 103.35C230.172 85.05 238.672 75.9 245.572 75.9ZM298.893 111.3L302.343 114C299.243 118.3 294.993 121.9 289.593 124.8C284.193 127.6 278.943 129 273.843 129C268.743 129 264.643 127.5 261.543 124.5C258.443 121.5 256.893 117.55 256.893 112.65C256.893 103.45 261.743 94.4 271.443 85.5C281.243 76.6 291.143 72.15 301.143 72.15C307.743 72.15 311.043 74.75 311.043 79.95C311.043 85.35 307.543 90.8 300.543 96.3C293.643 101.8 283.893 106.8 271.293 111.3C272.193 113.6 273.593 115.4 275.493 116.7C277.393 118 279.343 118.65 281.343 118.65C285.643 118.65 291.493 116.2 298.893 111.3ZM270.543 106.8C278.643 104 285.593 100.5 291.393 96.3C297.193 92.1 300.093 88.25 300.093 84.75C300.093 83.45 299.593 82.3 298.593 81.3C297.593 80.3 296.443 79.8 295.143 79.8C290.443 79.8 285.343 82.75 279.843 88.65C274.443 94.45 271.343 100.5 270.543 106.8ZM359.409 70.35L358.059 76.2C356.359 76 354.159 75.9 351.459 75.9C341.459 75.9 336.459 79.2 336.459 85.8C336.459 87.2 338.459 91.3 342.459 98.1C346.559 104.9 348.609 109.45 348.609 111.75C348.609 117.15 346.759 121.4 343.059 124.5C339.459 127.5 334.609 129 328.509 129C320.109 129 313.359 124.35 308.259 115.05L313.959 111C315.359 112.1 316.859 113.45 318.459 115.05C320.059 116.55 321.259 117.6 322.059 118.2C323.959 119.9 326.059 120.75 328.359 120.75C330.659 120.75 332.659 119.95 334.359 118.35C336.059 116.65 336.909 114.6 336.909 112.2C336.909 109.7 334.709 105.1 330.309 98.4C326.009 91.7 323.859 87 323.859 84.3C323.859 79.4 325.909 75.65 330.009 73.05C334.209 70.45 339.659 69.15 346.359 69.15C353.159 69.15 357.509 69.55 359.409 70.35Z" fill="white"/>
<path d="M425.868 45.75L404.418 45.3C382.518 45.3 371.568 50.1 371.568 59.7C371.568 62.2 372.468 64.25 374.268 65.85C376.168 67.35 378.968 68.1 382.668 68.1C386.368 68.1 391.218 66.4 397.218 63L399.468 66.9C396.368 70.2 392.868 72.8 388.968 74.7C385.068 76.6 381.168 77.55 377.268 77.55C373.368 77.55 370.018 76.25 367.218 73.65C364.418 71.05 363.018 67.8 363.018 63.9C363.018 56 367.268 49.1 375.768 43.2C384.368 37.3 395.968 34.35 410.568 34.35C411.768 34.35 416.068 34.55 423.468 34.95C430.868 35.35 436.718 35.55 441.018 35.55C445.318 35.55 449.268 34.9 452.868 33.6C454.268 33.2 455.118 33 455.418 33C456.818 33 457.518 33.9 457.518 35.7C457.518 38.3 455.218 40.65 450.618 42.75C446.118 44.85 440.918 45.9 435.018 45.9C428.418 52.3 422.618 63.5 417.618 79.5C412.718 95.4 406.818 107.55 399.918 115.95C393.118 124.25 385.018 128.4 375.618 128.4C371.918 128.4 368.418 127.2 365.118 124.8L368.568 119.1C369.768 119.7 371.118 120.25 372.618 120.75L374.718 121.05C375.218 121.15 375.968 121.2 376.968 121.2C381.968 121.2 386.418 118.8 390.318 114C394.318 109.2 398.468 100.15 402.768 86.85C407.168 73.45 410.568 64.6 412.968 60.3C415.468 55.9 419.768 51.05 425.868 45.75ZM464.713 111.3L468.163 114C465.063 118.3 460.813 121.9 455.413 124.8C450.013 127.6 444.763 129 439.663 129C434.563 129 430.463 127.5 427.363 124.5C424.263 121.5 422.713 117.55 422.713 112.65C422.713 103.45 427.563 94.4 437.263 85.5C447.063 76.6 456.963 72.15 466.963 72.15C473.563 72.15 476.863 74.75 476.863 79.95C476.863 85.35 473.363 90.8 466.363 96.3C459.463 101.8 449.713 106.8 437.113 111.3C438.013 113.6 439.413 115.4 441.313 116.7C443.213 118 445.163 118.65 447.163 118.65C451.463 118.65 457.313 116.2 464.713 111.3ZM436.363 106.8C444.463 104 451.413 100.5 457.213 96.3C463.013 92.1 465.913 88.25 465.913 84.75C465.913 83.45 465.413 82.3 464.413 81.3C463.413 80.3 462.263 79.8 460.963 79.8C456.263 79.8 451.163 82.75 445.663 88.65C440.263 94.45 437.163 100.5 436.363 106.8ZM520.492 107.7L524.092 110.7C521.692 116.2 517.842 120.6 512.542 123.9C507.242 127.2 502.092 128.85 497.092 128.85C492.192 128.85 488.092 127.3 484.792 124.2C481.592 121.1 479.992 116.85 479.992 111.45C479.992 106.05 482.342 100.2 487.042 93.9C491.742 87.6 497.792 82.4 505.192 78.3C512.692 74.2 520.042 72.15 527.242 72.15C528.242 72.15 529.742 72.25 531.742 72.45L531.292 78.3C520.292 78.8 511.142 82.15 503.842 88.35C496.642 94.55 493.042 101.15 493.042 108.15C493.042 111.05 493.942 113.4 495.742 115.2C497.542 117 499.892 117.9 502.792 117.9C507.392 117.9 513.292 114.5 520.492 107.7ZM592.527 118.05L595.977 120.9C591.777 127.9 586.327 131.4 579.627 131.4C573.827 131.4 570.927 128.55 570.927 122.85C570.927 119.55 572.327 114.3 575.127 107.1C578.027 99.8 579.477 95 579.477 92.7C579.477 89.8 577.627 88.35 573.927 88.35C570.227 88.35 565.177 92.35 558.777 100.35C552.477 108.25 547.177 117.45 542.877 127.95L534.027 124.8C539.227 98.7 552.827 63.75 574.827 19.95L582.177 22.35C571.077 44.55 563.127 62.2 558.327 75.3C553.327 88.9 549.577 100.15 547.077 109.05C554.777 96.35 561.377 87.55 566.877 82.65C572.477 77.75 577.327 75.3 581.427 75.3C588.827 75.3 592.527 77.95 592.527 83.25C592.527 86.55 590.677 92.45 586.977 100.95C583.277 109.45 581.427 115.1 581.427 117.9C581.427 120.7 582.777 122.1 585.477 122.1C586.877 122.1 589.227 120.75 592.527 118.05Z" fill="#FFAC33"/>
<path d="M117.78 167.38C117.78 167.38 116.72 167.36 114.6 167.32C109 167.32 106.2 168.96 106.2 172.24C106.2 174.48 107.34 175.82 109.62 176.26C111.14 176.54 111.9 177.34 111.9 178.66C111.9 179.38 111.64 179.96 111.12 180.4C110.64 180.8 109.98 181 109.14 181C107.38 181 105.9 180.26 104.7 178.78C103.5 177.26 102.9 175.54 102.9 173.62C102.9 166.7 108.82 163.24 120.66 163.24H132.78C133.42 163.24 133.98 163.46 134.46 163.9C134.98 164.3 135.24 164.86 135.24 165.58C135.24 166.3 134.98 166.88 134.46 167.32C133.98 167.72 133.42 167.92 132.78 167.92L123.48 167.62C123.16 174.5 123 179.98 123 184.06C123 188.1 123.08 192.02 123.24 195.82C123.44 199.62 123.54 201.84 123.54 202.48C123.54 203.12 123.26 203.76 122.7 204.4C122.18 205.04 121.5 205.36 120.66 205.36C119.82 205.36 119.12 205.04 118.56 204.4C118.04 203.76 117.78 203.12 117.78 202.48C117.78 201.84 117.86 199.62 118.02 195.82C118.22 192.02 118.32 188.26 118.32 184.54C118.32 180.82 118.14 175.1 117.78 167.38ZM143.233 193.06L136.093 192.46C135.413 192.46 134.873 192.52 134.473 192.64C134.713 194.92 135.673 196.82 137.353 198.34C139.073 199.86 141.093 200.62 143.413 200.62C145.653 200.62 147.673 199.8 149.473 198.16C150.113 197.6 150.593 197.32 150.913 197.32C151.233 197.32 151.513 197.44 151.753 197.68C151.993 197.92 152.113 198.18 152.113 198.46C152.113 199.62 150.973 201.06 148.693 202.78C146.453 204.5 143.893 205.36 141.013 205.36C138.173 205.36 135.693 204.2 133.573 201.88C131.493 199.56 130.453 196.68 130.453 193.24C130.453 188.84 132.113 185.14 135.433 182.14C138.753 179.14 142.413 177.64 146.413 177.64C148.093 177.64 149.453 177.94 150.493 178.54C151.573 179.1 152.113 179.84 152.113 180.76C152.113 181.64 151.833 182.36 151.273 182.92C150.753 183.48 150.233 183.76 149.713 183.76C149.193 183.76 148.293 183.52 147.013 183.04C145.773 182.56 144.573 182.32 143.413 182.32C141.253 182.32 139.373 182.98 137.773 184.3C136.213 185.58 135.173 187.18 134.653 189.1L142.933 188.62C144.773 188.62 145.693 189.34 145.693 190.78C145.693 192.3 144.873 193.06 143.233 193.06ZM167.728 182.32C165.088 182.32 162.928 183.24 161.248 185.08C159.608 186.88 158.788 189.04 158.788 191.56C158.788 194.08 159.648 196.22 161.368 197.98C163.128 199.74 165.268 200.62 167.788 200.62C170.028 200.62 172.048 199.8 173.848 198.16C174.488 197.6 174.968 197.32 175.288 197.32C175.608 197.32 175.888 197.44 176.128 197.68C176.368 197.92 176.488 198.18 176.488 198.46C176.488 199.62 175.348 201.06 173.068 202.78C170.828 204.5 168.268 205.36 165.388 205.36C162.548 205.36 160.068 204.2 157.948 201.88C155.868 199.56 154.828 196.68 154.828 193.24C154.828 188.84 156.488 185.14 159.808 182.14C163.128 179.14 166.788 177.64 170.788 177.64C172.468 177.64 173.828 177.94 174.868 178.54C175.948 179.1 176.488 179.84 176.488 180.76C176.488 181.64 176.208 182.36 175.648 182.92C175.128 183.48 174.608 183.76 174.088 183.76C173.568 183.76 172.668 183.52 171.388 183.04C170.148 182.56 168.928 182.32 167.728 182.32ZM204.057 196.42C204.297 197.58 204.817 198.62 205.617 199.54C206.457 200.42 206.877 201.32 206.877 202.24C206.877 203.16 206.557 203.92 205.917 204.52C205.277 205.08 204.577 205.36 203.817 205.36C203.057 205.36 202.437 205.22 201.957 204.94C201.477 204.66 201.077 204.24 200.757 203.68C200.317 202.84 199.977 201.82 199.737 200.62L197.097 188.08C196.697 186.24 196.057 184.78 195.177 183.7C194.337 182.62 193.017 182.08 191.217 182.08C189.457 182.08 188.077 182.7 187.077 183.94C186.117 185.14 185.617 186.46 185.577 187.9C185.897 197.38 186.057 202.4 186.057 202.96C186.057 203.48 185.817 204.02 185.337 204.58C184.857 205.1 184.237 205.36 183.477 205.36C182.717 205.36 182.057 205.1 181.497 204.58C180.977 204.02 180.717 203.12 180.717 201.88C180.717 200.64 180.817 197.7 181.017 193.06C181.217 188.38 181.317 184.76 181.317 182.2C181.317 179.64 181.217 176.2 181.017 171.88C180.817 167.56 180.717 164.78 180.717 163.54C180.717 162.3 180.977 161.4 181.497 160.84C182.057 160.28 182.717 160 183.477 160C184.237 160 184.857 160.28 185.337 160.84C185.817 161.36 186.057 162.24 186.057 163.48C186.057 164.68 185.957 167.52 185.757 172C185.597 176.44 185.517 180.08 185.517 182.92C187.877 179.4 190.597 177.64 193.677 177.64C197.877 177.64 200.577 180.46 201.777 186.1L204.057 196.42ZM233.04 163.24L245.16 163.6L257.28 163.24C257.92 163.24 258.48 163.46 258.96 163.9C259.48 164.3 259.74 164.86 259.74 165.58C259.74 166.3 259.48 166.88 258.96 167.32C258.48 167.72 257.92 167.92 257.28 167.92L245.16 167.56C244.12 167.56 242.44 167.6 240.12 167.68C240.12 167.76 240.04 169.1 239.88 171.7C239.76 174.3 239.68 176.9 239.64 179.5C241.16 179.66 242.9 180.24 244.86 181.24C246.82 182.2 248.24 182.68 249.12 182.68C250.04 182.68 250.86 182.52 251.58 182.2C252.3 181.84 252.78 181.44 253.02 181C253.58 179.92 254.26 179.38 255.06 179.38C256.02 179.38 256.5 179.98 256.5 181.18C256.5 182.34 255.76 183.7 254.28 185.26C252.8 186.78 251.06 187.54 249.06 187.54C247.1 187.54 245.2 186.92 243.36 185.68C241.56 184.44 240.32 183.76 239.64 183.64C239.64 187.84 239.72 191.88 239.88 195.76C240.08 199.64 240.18 201.9 240.18 202.54C240.18 203.14 239.9 203.76 239.34 204.4C238.82 205.04 238.14 205.36 237.3 205.36C236.46 205.36 235.76 205.04 235.2 204.4C234.68 203.76 234.42 203.1 234.42 202.42C234.42 201.7 234.5 199.58 234.66 196.06C234.82 192.54 234.92 188.98 234.96 185.38C234.88 185.46 234.76 185.6 234.6 185.8C234.44 185.96 234.32 186.08 234.24 186.16C234.16 186.24 234.04 186.34 233.88 186.46C233.72 186.58 233.58 186.68 233.46 186.76C233.26 186.88 233.02 186.94 232.74 186.94C231.86 186.94 231.42 186.4 231.42 185.32C231.42 184.68 231.76 183.92 232.44 183.04C233.12 182.16 233.96 181.4 234.96 180.76C234.96 178.52 234.78 174.24 234.42 167.92H233.04C232.4 167.92 231.82 167.72 231.3 167.32C230.82 166.88 230.58 166.3 230.58 165.58C230.58 164.86 230.82 164.3 231.3 163.9C231.82 163.46 232.4 163.24 233.04 163.24ZM265.725 185.02C263.965 186.78 263.085 188.94 263.085 191.5C263.085 194.06 263.965 196.24 265.725 198.04C267.525 199.8 269.685 200.68 272.205 200.68C274.765 200.68 276.905 199.8 278.625 198.04C280.345 196.24 281.205 194.06 281.205 191.5C281.205 188.94 280.345 186.78 278.625 185.02C276.905 183.26 274.765 182.38 272.205 182.38C269.685 182.38 267.525 183.26 265.725 185.02ZM268.125 205.36C265.565 205.36 263.425 204.36 261.705 202.36C259.985 200.36 259.125 197.86 259.125 194.86C259.125 191.82 260.065 188.9 261.945 186.1C263.825 183.26 266.025 181.14 268.545 179.74C271.065 178.34 273.605 177.64 276.165 177.64C278.725 177.64 280.865 178.64 282.585 180.64C284.305 182.64 285.165 185.16 285.165 188.2C285.165 191.2 284.225 194.12 282.345 196.96C280.465 199.76 278.265 201.86 275.745 203.26C273.225 204.66 270.685 205.36 268.125 205.36ZM295.868 190.9L296.348 201.76C296.348 202.84 296.068 203.72 295.507 204.4C294.988 205.04 294.348 205.36 293.588 205.36C292.828 205.36 292.208 205.06 291.728 204.46C291.248 203.82 291.008 202.96 291.008 201.88C291.008 200.8 291.108 199.26 291.308 197.26C291.708 193.26 291.908 189.88 291.908 187.12C291.908 185.92 291.528 184.78 290.768 183.7C290.048 182.58 289.688 181.58 289.688 180.7C289.688 179.82 289.988 179.1 290.588 178.54C291.188 177.94 291.868 177.64 292.628 177.64C294.628 177.64 295.628 179.22 295.628 182.38V184.72C296.828 182.56 298.268 180.84 299.948 179.56C301.628 178.28 303.168 177.64 304.568 177.64C305.968 177.64 307.028 178 307.748 178.72C308.508 179.4 308.888 180.32 308.888 181.48C308.888 182.64 308.608 183.62 308.048 184.42C307.488 185.18 306.888 185.56 306.248 185.56C305.608 185.56 305.108 185.4 304.748 185.08C304.428 184.72 304.188 184.36 304.028 184C303.868 183.6 303.568 183.24 303.128 182.92C302.688 182.56 302.128 182.38 301.448 182.38C300.288 182.38 299.128 183.14 297.968 184.66C296.808 186.18 296.108 188.26 295.868 190.9ZM343.835 167.38C343.835 167.38 342.775 167.36 340.655 167.32C335.055 167.32 332.255 168.96 332.255 172.24C332.255 174.48 333.395 175.82 335.675 176.26C337.195 176.54 337.955 177.34 337.955 178.66C337.955 179.38 337.695 179.96 337.175 180.4C336.695 180.8 336.035 181 335.195 181C333.435 181 331.955 180.26 330.755 178.78C329.555 177.26 328.955 175.54 328.955 173.62C328.955 166.7 334.875 163.24 346.715 163.24H358.835C359.475 163.24 360.035 163.46 360.515 163.9C361.035 164.3 361.295 164.86 361.295 165.58C361.295 166.3 361.035 166.88 360.515 167.32C360.035 167.72 359.475 167.92 358.835 167.92L349.535 167.62C349.215 174.5 349.055 179.98 349.055 184.06C349.055 188.1 349.135 192.02 349.295 195.82C349.495 199.62 349.595 201.84 349.595 202.48C349.595 203.12 349.315 203.76 348.755 204.4C348.235 205.04 347.555 205.36 346.715 205.36C345.875 205.36 345.175 205.04 344.615 204.4C344.095 203.76 343.835 203.12 343.835 202.48C343.835 201.84 343.915 199.62 344.075 195.82C344.275 192.02 344.375 188.26 344.375 184.54C344.375 180.82 344.195 175.1 343.835 167.38ZM389.155 196.42C389.395 197.58 389.915 198.62 390.715 199.54C391.555 200.42 391.975 201.32 391.975 202.24C391.975 203.16 391.655 203.92 391.015 204.52C390.375 205.08 389.675 205.36 388.915 205.36C388.155 205.36 387.535 205.22 387.055 204.94C386.575 204.66 386.175 204.24 385.855 203.68C385.415 202.84 385.075 201.82 384.835 200.62L382.195 188.08C381.795 186.24 381.155 184.78 380.275 183.7C379.435 182.62 378.115 182.08 376.315 182.08C374.555 182.08 373.175 182.7 372.175 183.94C371.215 185.14 370.715 186.46 370.675 187.9C370.995 197.38 371.155 202.4 371.155 202.96C371.155 203.48 370.915 204.02 370.435 204.58C369.955 205.1 369.335 205.36 368.575 205.36C367.815 205.36 367.155 205.1 366.595 204.58C366.075 204.02 365.815 203.12 365.815 201.88C365.815 200.64 365.915 197.7 366.115 193.06C366.315 188.38 366.415 184.76 366.415 182.2C366.415 179.64 366.315 176.2 366.115 171.88C365.915 167.56 365.815 164.78 365.815 163.54C365.815 162.3 366.075 161.4 366.595 160.84C367.155 160.28 367.815 160 368.575 160C369.335 160 369.955 160.28 370.435 160.84C370.915 161.36 371.155 162.24 371.155 163.48C371.155 164.68 371.055 167.52 370.855 172C370.695 176.44 370.615 180.08 370.615 182.92C372.975 179.4 375.695 177.64 378.775 177.64C382.975 177.64 385.675 180.46 386.875 186.1L389.155 196.42ZM408.37 193.06L401.23 192.46C400.55 192.46 400.01 192.52 399.61 192.64C399.85 194.92 400.81 196.82 402.49 198.34C404.21 199.86 406.23 200.62 408.55 200.62C410.79 200.62 412.81 199.8 414.61 198.16C415.25 197.6 415.73 197.32 416.05 197.32C416.37 197.32 416.65 197.44 416.89 197.68C417.13 197.92 417.25 198.18 417.25 198.46C417.25 199.62 416.11 201.06 413.83 202.78C411.59 204.5 409.03 205.36 406.15 205.36C403.31 205.36 400.83 204.2 398.71 201.88C396.63 199.56 395.59 196.68 395.59 193.24C395.59 188.84 397.25 185.14 400.57 182.14C403.89 179.14 407.55 177.64 411.55 177.64C413.23 177.64 414.59 177.94 415.63 178.54C416.71 179.1 417.25 179.84 417.25 180.76C417.25 181.64 416.97 182.36 416.41 182.92C415.89 183.48 415.37 183.76 414.85 183.76C414.33 183.76 413.43 183.52 412.15 183.04C410.91 182.56 409.71 182.32 408.55 182.32C406.39 182.32 404.51 182.98 402.91 184.3C401.35 185.58 400.31 187.18 399.79 189.1L408.07 188.62C409.91 188.62 410.83 189.34 410.83 190.78C410.83 192.3 410.01 193.06 408.37 193.06ZM442.513 163.24L454.633 163.6L466.753 163.24C467.393 163.24 467.953 163.46 468.433 163.9C468.953 164.3 469.213 164.86 469.213 165.58C469.213 166.3 468.953 166.88 468.433 167.32C467.953 167.72 467.393 167.92 466.753 167.92L454.633 167.56C453.593 167.56 451.913 167.6 449.593 167.68C449.593 167.76 449.513 169.1 449.353 171.7C449.233 174.3 449.153 176.9 449.113 179.5C450.633 179.66 452.373 180.24 454.333 181.24C456.293 182.2 457.713 182.68 458.593 182.68C459.513 182.68 460.333 182.52 461.053 182.2C461.773 181.84 462.253 181.44 462.493 181C463.053 179.92 463.733 179.38 464.533 179.38C465.493 179.38 465.973 179.98 465.973 181.18C465.973 182.34 465.233 183.7 463.753 185.26C462.273 186.78 460.533 187.54 458.533 187.54C456.573 187.54 454.673 186.92 452.833 185.68C451.033 184.44 449.793 183.76 449.113 183.64C449.113 187.84 449.193 191.88 449.353 195.76C449.553 199.64 449.653 201.9 449.653 202.54C449.653 203.14 449.373 203.76 448.813 204.4C448.293 205.04 447.613 205.36 446.773 205.36C445.933 205.36 445.233 205.04 444.673 204.4C444.153 203.76 443.893 203.1 443.893 202.42C443.893 201.7 443.973 199.58 444.133 196.06C444.293 192.54 444.393 188.98 444.433 185.38C444.353 185.46 444.233 185.6 444.073 185.8C443.913 185.96 443.793 186.08 443.713 186.16C443.633 186.24 443.513 186.34 443.353 186.46C443.193 186.58 443.053 186.68 442.933 186.76C442.733 186.88 442.493 186.94 442.213 186.94C441.333 186.94 440.893 186.4 440.893 185.32C440.893 184.68 441.233 183.92 441.913 183.04C442.593 182.16 443.433 181.4 444.433 180.76C444.433 178.52 444.253 174.24 443.893 167.92H442.513C441.873 167.92 441.293 167.72 440.773 167.32C440.293 166.88 440.053 166.3 440.053 165.58C440.053 164.86 440.293 164.3 440.773 163.9C441.293 163.46 441.873 163.24 442.513 163.24ZM491.495 194.74L490.895 181.24C490.895 180.16 491.155 179.3 491.675 178.66C492.235 177.98 492.895 177.64 493.655 177.64C494.415 177.64 495.035 177.96 495.515 178.6C495.995 179.2 496.235 180.04 496.235 181.12C496.235 182.16 496.115 183.64 495.875 185.56C495.395 189.4 495.155 192.84 495.155 195.88C495.155 197.08 495.535 198.24 496.295 199.36C497.095 200.44 497.495 201.42 497.495 202.3C497.495 203.18 497.195 203.92 496.595 204.52C495.995 205.08 495.315 205.36 494.555 205.36C492.555 205.36 491.555 203.78 491.555 200.62C489.675 203.78 487.315 205.36 484.475 205.36C482.195 205.36 480.375 204.54 479.015 202.9C477.695 201.26 476.775 199.26 476.255 196.9L473.975 186.58C473.735 185.42 473.195 184.4 472.355 183.52C471.555 182.6 471.155 181.68 471.155 180.76C471.155 179.84 471.475 179.1 472.115 178.54C472.755 177.94 473.515 177.64 474.395 177.64C476.395 177.64 477.695 179.22 478.295 182.38L480.575 194.92C481.335 198.92 483.235 200.92 486.275 200.92C487.755 200.92 488.975 200.34 489.935 199.18C490.895 197.98 491.415 196.5 491.495 194.74ZM517.176 182.08C516.976 182.08 514.476 181.92 509.676 181.6C509.676 182.12 509.596 184.1 509.436 187.54C509.276 190.98 509.196 193.54 509.196 195.22C509.196 196.86 509.556 198.24 510.276 199.36C511.036 200.44 511.416 201.42 511.416 202.3C511.416 203.18 511.116 203.92 510.516 204.52C509.916 205.08 509.236 205.36 508.476 205.36C506.476 205.36 505.476 203.78 505.476 200.62L505.236 188.44C505.236 185.96 505.176 183.74 505.056 181.78H503.616C503.056 181.78 502.596 181.62 502.236 181.3C501.876 180.94 501.696 180.46 501.696 179.86C501.696 179.26 501.876 178.8 502.236 178.48C502.596 178.12 503.056 177.94 503.616 177.94H504.876C504.796 175.86 504.756 174.28 504.756 173.2C504.756 172.08 505.016 171.2 505.536 170.56C506.096 169.88 506.756 169.54 507.516 169.54C508.276 169.54 508.896 169.86 509.376 170.5C509.856 171.1 510.096 172.1 510.096 173.5C510.096 174.9 510.036 176.44 509.916 178.12L517.176 177.64C518.736 177.64 519.516 178.38 519.516 179.86C519.516 181.34 518.736 182.08 517.176 182.08ZM541.651 194.74L541.051 181.24C541.051 180.16 541.311 179.3 541.831 178.66C542.391 177.98 543.051 177.64 543.811 177.64C544.571 177.64 545.191 177.96 545.671 178.6C546.151 179.2 546.391 180.04 546.391 181.12C546.391 182.16 546.271 183.64 546.031 185.56C545.551 189.4 545.311 192.84 545.311 195.88C545.311 197.08 545.691 198.24 546.451 199.36C547.251 200.44 547.651 201.42 547.651 202.3C547.651 203.18 547.351 203.92 546.751 204.52C546.151 205.08 545.471 205.36 544.711 205.36C542.711 205.36 541.711 203.78 541.711 200.62C539.831 203.78 537.471 205.36 534.631 205.36C532.351 205.36 530.531 204.54 529.171 202.9C527.851 201.26 526.931 199.26 526.411 196.9L524.131 186.58C523.891 185.42 523.351 184.4 522.511 183.52C521.711 182.6 521.311 181.68 521.311 180.76C521.311 179.84 521.631 179.1 522.271 178.54C522.911 177.94 523.671 177.64 524.551 177.64C526.551 177.64 527.851 179.22 528.451 182.38L530.731 194.92C531.491 198.92 533.391 200.92 536.431 200.92C537.911 200.92 539.131 200.34 540.091 199.18C541.051 197.98 541.571 196.5 541.651 194.74ZM559.832 190.9L560.312 201.76C560.312 202.84 560.032 203.72 559.472 204.4C558.952 205.04 558.312 205.36 557.552 205.36C556.792 205.36 556.172 205.06 555.692 204.46C555.212 203.82 554.972 202.96 554.972 201.88C554.972 200.8 555.072 199.26 555.272 197.26C555.672 193.26 555.872 189.88 555.872 187.12C555.872 185.92 555.492 184.78 554.732 183.7C554.012 182.58 553.652 181.58 553.652 180.7C553.652 179.82 553.952 179.1 554.552 178.54C555.152 177.94 555.832 177.64 556.592 177.64C558.592 177.64 559.592 179.22 559.592 182.38V184.72C560.792 182.56 562.232 180.84 563.912 179.56C565.592 178.28 567.132 177.64 568.532 177.64C569.932 177.64 570.992 178 571.712 178.72C572.472 179.4 572.852 180.32 572.852 181.48C572.852 182.64 572.572 183.62 572.012 184.42C571.452 185.18 570.852 185.56 570.212 185.56C569.572 185.56 569.072 185.4 568.712 185.08C568.392 184.72 568.152 184.36 567.992 184C567.832 183.6 567.532 183.24 567.092 182.92C566.652 182.56 566.092 182.38 565.412 182.38C564.252 182.38 563.092 183.14 561.932 184.66C560.772 186.18 560.072 188.26 559.832 190.9ZM588.311 193.06L581.171 192.46C580.491 192.46 579.951 192.52 579.551 192.64C579.791 194.92 580.751 196.82 582.431 198.34C584.151 199.86 586.171 200.62 588.491 200.62C590.731 200.62 592.751 199.8 594.551 198.16C595.191 197.6 595.671 197.32 595.991 197.32C596.311 197.32 596.591 197.44 596.831 197.68C597.071 197.92 597.191 198.18 597.191 198.46C597.191 199.62 596.051 201.06 593.771 202.78C591.531 204.5 588.971 205.36 586.091 205.36C583.251 205.36 580.771 204.2 578.651 201.88C576.571 199.56 575.531 196.68 575.531 193.24C575.531 188.84 577.191 185.14 580.511 182.14C583.831 179.14 587.491 177.64 591.491 177.64C593.171 177.64 594.531 177.94 595.571 178.54C596.651 179.1 597.191 179.84 597.191 180.76C597.191 181.64 596.911 182.36 596.351 182.92C595.831 183.48 595.311 183.76 594.791 183.76C594.271 183.76 593.371 183.52 592.091 183.04C590.851 182.56 589.651 182.32 588.491 182.32C586.331 182.32 584.451 182.98 582.851 184.3C581.291 185.58 580.251 187.18 579.731 189.1L588.011 188.62C589.851 188.62 590.771 189.34 590.771 190.78C590.771 192.3 589.951 193.06 588.311 193.06Z" fill="white"/>
</svg>
