<svg width="230" height="36" viewBox="0 0 230 36" fill="none" xmlns="http://www.w3.org/2000/svg">
<path d="M0.45 27.8V26.8C0.45 26.1 0.8 25.75 1.5 25.75H5.75C6.45 25.75 6.8 26.1 6.8 26.8V27.2C6.8 28.4667 7.05 29.3333 7.55 29.8C8.05 30.2667 8.96667 30.5 10.3 30.5H12.65C13.95 30.5 14.85 30.25 15.35 29.75C15.8833 29.25 16.15 28.3167 16.15 26.95V26.35C16.15 25.3833 15.75 24.65 14.95 24.15C14.1833 23.6167 13.2167 23.3 12.05 23.2C10.8833 23.1 9.61667 22.9167 8.25 22.65C6.91667 22.35 5.66667 21.9833 4.5 21.55C3.33333 21.0833 2.35 20.2 1.55 18.9C0.783333 17.5667 0.4 15.8667 0.4 13.8V12.05C0.4 9.45 1.13333 7.43333 2.6 6C4.06667 4.56667 6.1 3.85 8.7 3.85H13.7C16.3333 3.85 18.3833 4.56667 19.85 6C21.3167 7.43333 22.05 9.45 22.05 12.05V13C22.05 13.7 21.7 14.05 21 14.05H16.75C16.05 14.05 15.7 13.7 15.7 13V12.7C15.7 11.4 15.45 10.5167 14.95 10.05C14.45 9.58333 13.5333 9.35 12.2 9.35H10.25C8.88333 9.35 7.95 9.61666 7.45 10.15C6.98333 10.65 6.75 11.65 6.75 13.15V14.1C6.75 15.6667 8.11667 16.5667 10.85 16.8C13.6833 17.0333 16.2 17.6 18.4 18.5C19.5667 19 20.5333 19.9 21.3 21.2C22.1 22.4667 22.5 24.1 22.5 26.1V27.8C22.5 30.4 21.7667 32.4167 20.3 33.85C18.8333 35.2833 16.8 36 14.2 36H8.75C6.15 36 4.11667 35.2833 2.65 33.85C1.18333 32.4167 0.45 30.4 0.45 27.8ZM33.0031 36H28.7531C28.0531 36 27.7031 35.65 27.7031 34.95V1.9C27.7031 1.2 28.0531 0.85 28.7531 0.85H33.0031C33.7031 0.85 34.0531 1.2 34.0531 1.9V13.2H34.2531C34.9865 11.4 36.6198 10.5 39.1531 10.5H40.7531C45.9865 10.5 48.6031 13.2167 48.6031 18.65V34.95C48.6031 35.65 48.2365 36 47.5031 36H43.3031C42.6031 36 42.2531 35.65 42.2531 34.95V18.95C42.2531 17.8833 42.0198 17.1333 41.5531 16.7C41.1198 16.2333 40.3698 16 39.3031 16H37.5031C35.2031 16 34.0531 17.2667 34.0531 19.8V34.95C34.0531 35.65 33.7031 36 33.0031 36ZM54.125 6.2V1.85C54.125 1.18333 54.4583 0.85 55.125 0.85H59.475C60.1417 0.85 60.475 1.16667 60.475 1.8V6.2C60.475 6.86667 60.1417 7.2 59.475 7.2H55.125C54.4583 7.2 54.125 6.86667 54.125 6.2ZM54.125 34.95V11.55C54.125 10.85 54.4583 10.5 55.125 10.5H59.425C60.125 10.5 60.475 10.85 60.475 11.55V34.95C60.475 35.3833 60.3917 35.6667 60.225 35.8C60.0917 35.9333 59.8417 36 59.475 36H55.175C54.475 36 54.125 35.65 54.125 34.95ZM71.5285 36H67.2785C66.5785 36 66.2285 35.65 66.2285 34.95V11.55C66.2285 10.85 66.5785 10.5 67.2785 10.5H71.5285C72.2285 10.5 72.5785 10.85 72.5785 11.55V13.25H72.7785C73.1452 12.35 73.7952 11.6667 74.7285 11.2C75.6618 10.7333 76.6452 10.5 77.6785 10.5H79.4785C80.1452 10.5 80.4785 10.85 80.4785 11.55V15C80.4785 15.4 80.3952 15.6833 80.2285 15.85C80.0952 15.9833 79.8452 16.0333 79.4785 16H76.0285C73.7285 16 72.5785 17.3 72.5785 19.9V34.95C72.5785 35.65 72.2285 36 71.5285 36ZM102.46 36H91.4102C88.7768 36 86.7435 35.3 85.3102 33.9C83.8768 32.5 83.1602 30.4833 83.1602 27.85V18.65C83.1602 16.0167 83.8768 14 85.3102 12.6C86.7435 11.2 88.7768 10.5 91.4102 10.5H95.3602C97.9935 10.5 100.027 11.2 101.46 12.6C102.893 14 103.61 16.0167 103.61 18.65V25C103.61 25.7 103.26 26.05 102.56 26.05H90.0102C89.6102 26.05 89.4102 26.2333 89.4102 26.6V27.7C89.4102 28.7333 89.6268 29.4833 90.0602 29.95C90.5268 30.3833 91.2935 30.6 92.3602 30.6H102.46C103.16 30.6 103.51 30.9667 103.51 31.7V35C103.51 35.3667 103.427 35.6333 103.26 35.8C103.127 35.9333 102.86 36 102.46 36ZM90.0102 21.8H96.8102C97.1768 21.8 97.3602 21.6167 97.3602 21.25V18.85C97.3602 17.7833 97.1435 17.0333 96.7102 16.6C96.2768 16.1667 95.5268 15.95 94.4602 15.95H92.3602C91.2935 15.95 90.5435 16.1667 90.1102 16.6C89.6768 17.0333 89.4602 17.7833 89.4602 18.85V21.25C89.4602 21.6167 89.6435 21.8 90.0102 21.8ZM118.017 36H108.517C107.851 36 107.517 35.65 107.517 34.95V31.75C107.517 31.3833 107.584 31.1333 107.717 31C107.851 30.8333 108.117 30.75 108.517 30.75H116.867C118.501 30.75 119.317 30.25 119.317 29.25V29C119.317 28.2 118.634 27.4333 117.267 26.7L112.317 23.95C110.617 23.0833 109.367 22.15 108.567 21.15C107.767 20.15 107.367 18.8667 107.367 17.3C107.367 14.9667 107.984 13.25 109.217 12.15C110.451 11.05 112.384 10.5 115.017 10.5H123.367C124.034 10.5 124.367 10.85 124.367 11.55V14.8C124.367 15.1667 124.301 15.4333 124.167 15.6C124.034 15.7333 123.767 15.8 123.367 15.8H116.417C114.784 15.8 113.967 16.2167 113.967 17.05V17.3C113.967 18.0333 114.684 18.7833 116.117 19.55L121.167 22.55C122.901 23.4833 124.117 24.45 124.817 25.45C125.517 26.4167 125.867 27.7 125.867 29.3C125.867 33.7667 123.251 36 118.017 36ZM151.727 36H147.527C146.794 36 146.427 35.65 146.427 34.95V9.9C146.427 9.53333 146.244 9.35 145.877 9.35H140.177C139.477 9.35 139.127 9 139.127 8.3V4.9C139.127 4.2 139.477 3.85 140.177 3.85H159.077C159.777 3.85 160.127 4.2 160.127 4.9V8.3C160.127 9 159.777 9.35 159.077 9.35H153.377C152.977 9.35 152.777 9.53333 152.777 9.9V34.95C152.777 35.65 152.427 36 151.727 36ZM182.245 36H171.195C168.562 36 166.529 35.3 165.095 33.9C163.662 32.5 162.945 30.4833 162.945 27.85V18.65C162.945 16.0167 163.662 14 165.095 12.6C166.529 11.2 168.562 10.5 171.195 10.5H175.145C177.779 10.5 179.812 11.2 181.245 12.6C182.679 14 183.395 16.0167 183.395 18.65V25C183.395 25.7 183.045 26.05 182.345 26.05H169.795C169.395 26.05 169.195 26.2333 169.195 26.6V27.7C169.195 28.7333 169.412 29.4833 169.845 29.95C170.312 30.3833 171.079 30.6 172.145 30.6H182.245C182.945 30.6 183.295 30.9667 183.295 31.7V35C183.295 35.3667 183.212 35.6333 183.045 35.8C182.912 35.9333 182.645 36 182.245 36ZM169.795 21.8H176.595C176.962 21.8 177.145 21.6167 177.145 21.25V18.85C177.145 17.7833 176.929 17.0333 176.495 16.6C176.062 16.1667 175.312 15.95 174.245 15.95H172.145C171.079 15.95 170.329 16.1667 169.895 16.6C169.462 17.0333 169.245 17.7833 169.245 18.85V21.25C169.245 21.6167 169.429 21.8 169.795 21.8ZM204.402 31.55V35C204.402 35.3667 204.319 35.6333 204.152 35.8C204.019 35.9333 203.752 36 203.352 36H195.902C193.269 36 191.236 35.3 189.802 33.9C188.369 32.5 187.652 30.4833 187.652 27.85V18.65C187.652 16.0167 188.369 14 189.802 12.6C191.236 11.2 193.269 10.5 195.902 10.5H203.352C204.052 10.5 204.402 10.85 204.402 11.55V15C204.402 15.3667 204.319 15.6333 204.152 15.8C204.019 15.9333 203.752 16 203.352 16H196.902C195.869 16 195.119 16.2333 194.652 16.7C194.219 17.1333 194.002 17.8833 194.002 18.95V27.55C194.002 28.6167 194.219 29.3833 194.652 29.85C195.119 30.2833 195.869 30.5 196.902 30.5H203.352C204.052 30.5 204.402 30.85 204.402 31.55ZM214.009 36H209.759C209.059 36 208.709 35.65 208.709 34.95V1.9C208.709 1.2 209.059 0.85 209.759 0.85H214.009C214.709 0.85 215.059 1.2 215.059 1.9V13.2H215.259C215.992 11.4 217.626 10.5 220.159 10.5H221.759C226.992 10.5 229.609 13.2167 229.609 18.65V34.95C229.609 35.65 229.242 36 228.509 36H224.309C223.609 36 223.259 35.65 223.259 34.95V18.95C223.259 17.8833 223.026 17.1333 222.559 16.7C222.126 16.2333 221.376 16 220.309 16H218.509C216.209 16 215.059 17.2667 215.059 19.8V34.95C215.059 35.65 214.709 36 214.009 36Z" fill="white"/>
</svg>
