<svg width="512" height="512" viewBox="0 0 512 512" fill="none" xmlns="http://www.w3.org/2000/svg">
<g clip-path="url(#clip0_477_569)">
<path d="M512 256C512 114.615 397.385 0 256 0C114.615 0 0 114.615 0 256C0 397.385 114.615 512 256 512C397.385 512 512 397.385 512 256Z" fill="#002254"/>
<path d="M199.426 230.52C198.046 221.933 195.593 214.803 192.066 209.13C188.539 203.303 184.016 198.933 178.496 196.02C173.129 193.107 166.843 191.727 159.636 191.88C153.043 191.88 147.216 193.72 142.156 197.4C137.249 201.08 134.796 205.833 134.796 211.66C134.796 216.413 136.099 220.553 138.706 224.08C141.466 227.607 145.606 230.903 151.126 233.97C156.646 237.037 163.623 240.333 172.056 243.86C177.883 246.16 183.863 248.843 189.996 251.91C196.129 254.977 201.803 258.657 207.016 262.95C212.229 267.09 216.446 271.997 219.666 277.67C222.886 283.19 224.496 289.707 224.496 297.22C224.496 306.267 222.043 314.317 217.136 321.37C212.229 328.423 205.329 333.943 196.436 337.93C187.696 341.763 177.423 343.68 165.616 343.68C159.483 343.68 152.813 342.683 145.606 340.69C138.553 338.85 131.883 336.09 125.596 332.41L126.286 342.07H108.576V288.25H123.756C125.903 301.13 130.809 310.867 138.476 317.46C146.296 323.9 155.573 327.12 166.306 327.12C171.826 327.12 176.656 326.123 180.796 324.13C184.936 322.137 188.156 319.53 190.456 316.31C192.756 312.937 193.906 309.333 193.906 305.5C193.906 300.133 191.989 295.687 188.156 292.16C184.476 288.633 179.799 285.643 174.126 283.19C168.606 280.737 162.933 278.36 157.106 276.06C149.746 272.993 142.846 269.773 136.406 266.4C130.119 262.873 124.599 258.887 119.846 254.44C115.093 249.993 111.413 244.933 108.806 239.26C106.199 233.433 104.896 226.763 104.896 219.25C104.896 214.497 105.816 209.59 107.656 204.53C109.496 199.317 112.486 194.563 116.626 190.27C120.766 185.823 126.286 182.22 133.186 179.46C140.086 176.7 148.596 175.32 158.716 175.32C164.849 175.32 171.519 176.24 178.726 178.08C186.086 179.92 192.373 182.68 197.586 186.36L196.666 176.93H214.606V230.52H199.426ZM243.967 340V324.82C247.493 324.667 250.407 324.207 252.707 323.44C255.16 322.673 257 320.91 258.227 318.15C259.607 315.39 260.297 310.943 260.297 304.81V216.72C260.297 212.58 260.373 208.593 260.527 204.76C260.833 200.927 261.063 198.013 261.217 196.02C258.763 196.173 255.697 196.327 252.017 196.48C248.337 196.48 245.653 196.557 243.967 196.71V179H309.977V194.18C306.603 194.333 303.69 194.793 301.237 195.56C298.783 196.327 296.867 198.09 295.487 200.85C294.26 203.457 293.647 207.903 293.647 214.19V250.07H356.897V216.72C356.897 212.58 356.973 208.593 357.127 204.76C357.28 200.927 357.51 198.013 357.817 196.02C355.363 196.173 352.297 196.327 348.617 196.48C344.937 196.48 342.253 196.557 340.567 196.71V179H406.577V194.18C403.203 194.333 400.29 194.793 397.837 195.56C395.383 196.327 393.467 198.09 392.087 200.85C390.86 203.457 390.247 207.903 390.247 214.19V302.28C390.247 306.42 390.17 310.407 390.017 314.24C389.863 318.073 389.633 320.987 389.327 322.98C391.78 322.673 394.847 322.52 398.527 322.52C402.36 322.367 405.043 322.29 406.577 322.29V340H340.567V324.82C344.093 324.667 347.007 324.207 349.307 323.44C351.76 322.673 353.6 320.91 354.827 318.15C356.207 315.39 356.897 310.943 356.897 304.81V267.55L293.647 268.24V302.28C293.647 306.42 293.57 310.407 293.417 314.24C293.263 318.073 293.033 320.987 292.727 322.98C295.18 322.673 298.247 322.52 301.927 322.52C305.76 322.367 308.443 322.29 309.977 322.29V340H243.967Z" fill="white"/>
</g>
<defs>
<clipPath id="clip0_477_569">
<rect width="512" height="512" fill="white"/>
</clipPath>
</defs>
</svg>
